<svg width="44" height="50" viewBox="0 0 44 50" fill="none" xmlns="http://www.w3.org/2000/svg">
<path fill-rule="evenodd" clip-rule="evenodd" d="M0 15.9998V33.9998C0.0093519 35.0636 0.301354 36.1057 0.846086 37.0195C1.39082 37.9332 2.16869 38.6857 3.1 39.1998L18.9 48.1998C19.8239 48.7452 20.8771 49.0329 21.95 49.0329C23.0229 49.0329 24.0761 48.7452 25 48.1998L40.8 39.1998C41.7246 38.6778 42.4969 37.9235 43.0406 37.0115C43.5843 36.0995 43.8805 35.0614 43.9 33.9998V15.9998C43.8906 14.9361 43.5986 13.8939 43.0539 12.9802C42.5092 12.0664 41.7313 11.314 40.8 10.7998L25 1.79983C24.0761 1.25446 23.0229 0.966797 21.95 0.966797C20.8771 0.966797 19.8239 1.25446 18.9 1.79983L3.1 10.7998C2.17541 11.3218 1.40309 12.0761 0.859397 12.9881C0.315705 13.9001 0.0194752 14.9382 0 15.9998" fill="#349348"/>
<path fill-rule="evenodd" clip-rule="evenodd" d="M5.50005 12.4999L1.30005 27.4999C0.800054 29.2999 1.30005 31.1999 2.70005 32.5999L13.9001 43.6999C14.5741 44.3595 15.4064 44.8347 16.317 45.0799C17.2276 45.3251 18.186 45.332 19.1001 45.0999L34.5001 41.0999C35.3983 40.8622 36.2199 40.3968 36.8856 39.7486C37.5513 39.1004 38.0385 38.2915 38.3001 37.3999L42.5001 22.2999C43.0001 20.4999 42.5001 18.5999 41.1001 17.1999L29.9001 6.19993C29.226 5.54034 28.3937 5.06514 27.4831 4.81997C26.5725 4.5748 25.6141 4.5679 24.7001 4.79993L9.30005 8.79993C8.40186 9.03764 7.58019 9.50309 6.9145 10.1513C6.24882 10.7994 5.76163 11.6084 5.50005 12.4999Z" fill="#73AD43"/>
<path fill-rule="evenodd" clip-rule="evenodd" d="M20.1 40.6996L17.3 39.7996C6.9 36.6996 8.8 38.6996 6.4 28.3996C4 18.0996 3.1 20.6996 11 13.4996C18.9 6.2996 16.1 6.8996 26.5 9.9996C36.8 13.0996 34.9 11.0996 37.4 21.3996C39.8 31.6996 40.7 29.0996 32.8 36.2996C26.4 42.1996 27 42.8996 22 41.2996" fill="#AFD139"/>
</svg>
